<svg width="40" height="40" viewBox="0 0 40 40" fill="none" xmlns="http://www.w3.org/2000/svg">
<path d="M19.7298 36.6667C13.4497 36.6667 8.34487 31.6514 8.33334 25.4953V14.5047C8.33334 8.34859 13.4497 3.33334 19.7298 3.33334H20.548C26.8281 3.33334 31.9445 8.34859 31.9445 14.5047V25.4953C31.9445 31.6514 26.8281 36.6667 20.548 36.6667H19.7298ZM11.1681 14.5047V25.4953C11.1681 30.1265 15.0168 33.8993 19.7413 33.8993H20.5595C25.284 33.8993 29.1328 30.1265 29.1328 25.4953V14.5047C29.1328 9.8735 25.284 6.10077 20.5595 6.10077H19.7413C15.0168 6.10077 11.1681 9.8735 11.1681 14.5047ZM20.8333 17.2222C20.0655 17.2222 19.4445 16.5857 19.4445 15.7724V10.3387C19.4445 9.53718 20.0655 8.8889 20.8333 8.8889C21.6012 8.8889 22.2222 9.53718 22.2222 10.3387V15.7724C22.2222 16.574 21.6012 17.2222 20.8333 17.2222Z" fill="#A80610"/>
</svg>
